<mxfile host="app.diagrams.net" agent="Mozilla/5.0 (Windows NT 10.0; Win64; x64) AppleWebKit/537.36 (KHTML, like Gecko) Chrome/130.0.0.0 Safari/537.36" version="24.8.3">
  <diagram name="Page-1" id="_ri0b7pyoZSlwUfXbioE">
    <mxGraphModel dx="5500" dy="5851" grid="1" gridSize="10" guides="1" tooltips="1" connect="1" arrows="1" fold="1" page="1" pageScale="1" pageWidth="3300" pageHeight="4681" math="0" shadow="0">
      <root>
        <mxCell id="0" />
        <mxCell id="1" parent="0" />
        <mxCell id="vJyoMugsj6Gbt4VZx-OQ-1" value="" style="rounded=0;whiteSpace=wrap;html=1;" vertex="1" parent="1">
          <mxGeometry x="-140" y="-120" width="1510" height="1010" as="geometry" />
        </mxCell>
        <mxCell id="vJyoMugsj6Gbt4VZx-OQ-2" value="&lt;font style=&quot;font-size: 16px;&quot;&gt;Cas d&#39;utilisation gestion utilisateur&lt;/font&gt;" style="shape=umlFrame;whiteSpace=wrap;html=1;pointerEvents=0;recursiveResize=0;container=1;collapsible=0;width=279;height=36;" vertex="1" parent="1">
          <mxGeometry x="-60" y="-36" width="1370" height="896" as="geometry" />
        </mxCell>
        <mxCell id="vJyoMugsj6Gbt4VZx-OQ-3" value="&lt;font style=&quot;font-size: 15px;&quot;&gt;Consulter Réunion&lt;/font&gt;" style="ellipse;whiteSpace=wrap;html=1;" vertex="1" parent="vJyoMugsj6Gbt4VZx-OQ-2">
          <mxGeometry x="555" y="356" width="140" height="70" as="geometry" />
        </mxCell>
        <mxCell id="vJyoMugsj6Gbt4VZx-OQ-4" value="&lt;font style=&quot;font-size: 15px;&quot;&gt;Supprimer Reunion&lt;/font&gt;" style="ellipse;whiteSpace=wrap;html=1;" vertex="1" parent="vJyoMugsj6Gbt4VZx-OQ-2">
          <mxGeometry x="529" y="256" width="140" height="70" as="geometry" />
        </mxCell>
        <mxCell id="vJyoMugsj6Gbt4VZx-OQ-5" value="" style="rounded=0;whiteSpace=wrap;html=1;" vertex="1" parent="vJyoMugsj6Gbt4VZx-OQ-2">
          <mxGeometry x="299" y="86" width="841" height="764" as="geometry" />
        </mxCell>
        <mxCell id="vJyoMugsj6Gbt4VZx-OQ-6" value="&lt;font style=&quot;font-size: 15px;&quot;&gt;Serveur de Messagerie&lt;/font&gt;" style="shape=umlActor;verticalLabelPosition=bottom;verticalAlign=top;html=1;outlineConnect=0;" vertex="1" parent="vJyoMugsj6Gbt4VZx-OQ-2">
          <mxGeometry x="1260" y="416" width="51" height="66" as="geometry" />
        </mxCell>
        <mxCell id="vJyoMugsj6Gbt4VZx-OQ-8" value="&lt;font style=&quot;font-size: 15px;&quot;&gt;Désactiver Personnel&lt;/font&gt;" style="ellipse;whiteSpace=wrap;html=1;" vertex="1" parent="vJyoMugsj6Gbt4VZx-OQ-2">
          <mxGeometry x="615" y="366" width="140" height="70" as="geometry" />
        </mxCell>
        <mxCell id="vJyoMugsj6Gbt4VZx-OQ-9" value="&lt;font style=&quot;font-size: 15px;&quot;&gt;Supprimer Personnel&lt;/font&gt;" style="ellipse;whiteSpace=wrap;html=1;" vertex="1" parent="vJyoMugsj6Gbt4VZx-OQ-2">
          <mxGeometry x="630" y="276" width="140" height="70" as="geometry" />
        </mxCell>
        <mxCell id="vJyoMugsj6Gbt4VZx-OQ-10" value="&lt;font style=&quot;font-size: 15px;&quot;&gt;Ajouter Personnel&lt;/font&gt;" style="ellipse;whiteSpace=wrap;html=1;" vertex="1" parent="vJyoMugsj6Gbt4VZx-OQ-2">
          <mxGeometry x="820" y="156" width="140" height="70" as="geometry" />
        </mxCell>
        <mxCell id="vJyoMugsj6Gbt4VZx-OQ-13" value="" style="shape=umlActor;verticalLabelPosition=bottom;verticalAlign=top;html=1;outlineConnect=0;" vertex="1" parent="vJyoMugsj6Gbt4VZx-OQ-2">
          <mxGeometry x="128" y="296" width="30" height="60" as="geometry" />
        </mxCell>
        <mxCell id="vJyoMugsj6Gbt4VZx-OQ-14" value="" style="endArrow=classic;html=1;rounded=0;exitX=0.75;exitY=0.1;exitDx=0;exitDy=0;exitPerimeter=0;entryX=0;entryY=0.5;entryDx=0;entryDy=0;" edge="1" parent="vJyoMugsj6Gbt4VZx-OQ-2" source="vJyoMugsj6Gbt4VZx-OQ-13" target="vJyoMugsj6Gbt4VZx-OQ-10">
          <mxGeometry width="50" height="50" relative="1" as="geometry">
            <mxPoint x="619" y="396" as="sourcePoint" />
            <mxPoint x="669" y="346" as="targetPoint" />
          </mxGeometry>
        </mxCell>
        <mxCell id="vJyoMugsj6Gbt4VZx-OQ-15" value="" style="endArrow=classic;html=1;rounded=0;exitX=0.75;exitY=0.1;exitDx=0;exitDy=0;exitPerimeter=0;entryX=0;entryY=0.5;entryDx=0;entryDy=0;" edge="1" parent="vJyoMugsj6Gbt4VZx-OQ-2" source="vJyoMugsj6Gbt4VZx-OQ-13" target="vJyoMugsj6Gbt4VZx-OQ-9">
          <mxGeometry width="50" height="50" relative="1" as="geometry">
            <mxPoint x="619" y="396" as="sourcePoint" />
            <mxPoint x="669" y="346" as="targetPoint" />
          </mxGeometry>
        </mxCell>
        <mxCell id="vJyoMugsj6Gbt4VZx-OQ-17" value="" style="endArrow=classic;html=1;rounded=0;exitX=0.75;exitY=0.1;exitDx=0;exitDy=0;exitPerimeter=0;entryX=0;entryY=0.5;entryDx=0;entryDy=0;" edge="1" parent="vJyoMugsj6Gbt4VZx-OQ-2" source="vJyoMugsj6Gbt4VZx-OQ-13" target="vJyoMugsj6Gbt4VZx-OQ-8">
          <mxGeometry width="50" height="50" relative="1" as="geometry">
            <mxPoint x="499" y="346" as="sourcePoint" />
            <mxPoint x="549" y="296" as="targetPoint" />
          </mxGeometry>
        </mxCell>
        <mxCell id="vJyoMugsj6Gbt4VZx-OQ-18" value="&lt;font style=&quot;font-size: 15px;&quot;&gt;Modifier Personnel&lt;/font&gt;" style="ellipse;whiteSpace=wrap;html=1;" vertex="1" parent="vJyoMugsj6Gbt4VZx-OQ-2">
          <mxGeometry x="770" y="746" width="140" height="70" as="geometry" />
        </mxCell>
        <mxCell id="vJyoMugsj6Gbt4VZx-OQ-19" value="" style="endArrow=classic;html=1;rounded=0;exitX=0.75;exitY=0.1;exitDx=0;exitDy=0;exitPerimeter=0;entryX=0;entryY=0.5;entryDx=0;entryDy=0;" edge="1" parent="vJyoMugsj6Gbt4VZx-OQ-2" source="vJyoMugsj6Gbt4VZx-OQ-13" target="vJyoMugsj6Gbt4VZx-OQ-18">
          <mxGeometry width="50" height="50" relative="1" as="geometry">
            <mxPoint x="610" y="516" as="sourcePoint" />
            <mxPoint x="660" y="466" as="targetPoint" />
            <Array as="points">
              <mxPoint x="350" y="736" />
            </Array>
          </mxGeometry>
        </mxCell>
        <mxCell id="vJyoMugsj6Gbt4VZx-OQ-26" value="" style="shape=umlActor;verticalLabelPosition=bottom;verticalAlign=top;html=1;outlineConnect=0;" vertex="1" parent="vJyoMugsj6Gbt4VZx-OQ-2">
          <mxGeometry x="128" y="436" width="30" height="60" as="geometry" />
        </mxCell>
        <mxCell id="vJyoMugsj6Gbt4VZx-OQ-29" style="edgeStyle=orthogonalEdgeStyle;rounded=0;orthogonalLoop=1;jettySize=auto;html=1;" edge="1" parent="vJyoMugsj6Gbt4VZx-OQ-2" source="vJyoMugsj6Gbt4VZx-OQ-13" target="vJyoMugsj6Gbt4VZx-OQ-26">
          <mxGeometry relative="1" as="geometry" />
        </mxCell>
        <mxCell id="vJyoMugsj6Gbt4VZx-OQ-32" value="&lt;font style=&quot;font-size: 15px;&quot;&gt;Réinitialiser Mot de passe&lt;/font&gt;" style="ellipse;whiteSpace=wrap;html=1;" vertex="1" parent="vJyoMugsj6Gbt4VZx-OQ-2">
          <mxGeometry x="660" y="496" width="170" height="70" as="geometry" />
        </mxCell>
        <mxCell id="vJyoMugsj6Gbt4VZx-OQ-33" value="&lt;font style=&quot;font-size: 15px;&quot;&gt;Se deconnecter&lt;/font&gt;" style="ellipse;whiteSpace=wrap;html=1;" vertex="1" parent="vJyoMugsj6Gbt4VZx-OQ-2">
          <mxGeometry x="695" y="586" width="140" height="70" as="geometry" />
        </mxCell>
        <mxCell id="vJyoMugsj6Gbt4VZx-OQ-34" value="" style="endArrow=classic;html=1;rounded=0;exitX=0.75;exitY=0.1;exitDx=0;exitDy=0;exitPerimeter=0;entryX=0;entryY=0.5;entryDx=0;entryDy=0;" edge="1" parent="vJyoMugsj6Gbt4VZx-OQ-2" source="vJyoMugsj6Gbt4VZx-OQ-26" target="vJyoMugsj6Gbt4VZx-OQ-33">
          <mxGeometry width="50" height="50" relative="1" as="geometry">
            <mxPoint x="450" y="656" as="sourcePoint" />
            <mxPoint x="500" y="606" as="targetPoint" />
          </mxGeometry>
        </mxCell>
        <mxCell id="vJyoMugsj6Gbt4VZx-OQ-35" value="" style="endArrow=classic;html=1;rounded=0;exitX=0.75;exitY=0.1;exitDx=0;exitDy=0;exitPerimeter=0;entryX=0;entryY=0.5;entryDx=0;entryDy=0;" edge="1" parent="vJyoMugsj6Gbt4VZx-OQ-2" source="vJyoMugsj6Gbt4VZx-OQ-26" target="vJyoMugsj6Gbt4VZx-OQ-32">
          <mxGeometry width="50" height="50" relative="1" as="geometry">
            <mxPoint x="450" y="656" as="sourcePoint" />
            <mxPoint x="500" y="606" as="targetPoint" />
          </mxGeometry>
        </mxCell>
        <mxCell id="vJyoMugsj6Gbt4VZx-OQ-20" value="&lt;font style=&quot;font-size: 15px;&quot;&gt;Se conecter&lt;/font&gt;" style="ellipse;whiteSpace=wrap;html=1;" vertex="1" parent="vJyoMugsj6Gbt4VZx-OQ-2">
          <mxGeometry x="960" y="416" width="140" height="70" as="geometry" />
        </mxCell>
        <mxCell id="vJyoMugsj6Gbt4VZx-OQ-21" value="&lt;font style=&quot;font-size: 15px;&quot;&gt;&amp;lt;&amp;lt;include&amp;gt;&amp;gt;&lt;/font&gt;" style="html=1;verticalAlign=bottom;endArrow=open;dashed=1;endSize=8;curved=0;rounded=0;exitX=1;exitY=1;exitDx=0;exitDy=0;entryX=0.317;entryY=0.11;entryDx=0;entryDy=0;entryPerimeter=0;" edge="1" parent="vJyoMugsj6Gbt4VZx-OQ-2" source="vJyoMugsj6Gbt4VZx-OQ-9" target="vJyoMugsj6Gbt4VZx-OQ-20">
          <mxGeometry relative="1" as="geometry">
            <mxPoint x="630" y="316" as="sourcePoint" />
            <mxPoint x="550" y="316" as="targetPoint" />
          </mxGeometry>
        </mxCell>
        <mxCell id="vJyoMugsj6Gbt4VZx-OQ-22" value="&lt;font style=&quot;font-size: 15px;&quot;&gt;&amp;lt;&amp;lt;include&amp;gt;&amp;gt;&lt;/font&gt;" style="html=1;verticalAlign=bottom;endArrow=open;dashed=1;endSize=8;curved=0;rounded=0;exitX=0.798;exitY=0.919;exitDx=0;exitDy=0;exitPerimeter=0;" edge="1" parent="vJyoMugsj6Gbt4VZx-OQ-2" source="vJyoMugsj6Gbt4VZx-OQ-10" target="vJyoMugsj6Gbt4VZx-OQ-20">
          <mxGeometry relative="1" as="geometry">
            <mxPoint x="630" y="316" as="sourcePoint" />
            <mxPoint x="550" y="316" as="targetPoint" />
          </mxGeometry>
        </mxCell>
        <mxCell id="vJyoMugsj6Gbt4VZx-OQ-23" value="&lt;font style=&quot;font-size: 15px;&quot;&gt;&amp;lt;&amp;lt;include&amp;gt;&amp;gt;&lt;/font&gt;" style="html=1;verticalAlign=bottom;endArrow=open;dashed=1;endSize=8;curved=0;rounded=0;entryX=0;entryY=0.5;entryDx=0;entryDy=0;" edge="1" parent="vJyoMugsj6Gbt4VZx-OQ-2" source="vJyoMugsj6Gbt4VZx-OQ-8" target="vJyoMugsj6Gbt4VZx-OQ-20">
          <mxGeometry x="0.0039" relative="1" as="geometry">
            <mxPoint x="740" y="336" as="sourcePoint" />
            <mxPoint x="660" y="336" as="targetPoint" />
            <mxPoint as="offset" />
          </mxGeometry>
        </mxCell>
        <mxCell id="vJyoMugsj6Gbt4VZx-OQ-25" value="&lt;font style=&quot;font-size: 15px;&quot;&gt;&amp;lt;&amp;lt;include&amp;gt;&amp;gt;&lt;/font&gt;" style="html=1;verticalAlign=bottom;endArrow=open;dashed=1;endSize=8;curved=0;rounded=0;entryX=0.5;entryY=1;entryDx=0;entryDy=0;exitX=1;exitY=0.5;exitDx=0;exitDy=0;" edge="1" parent="vJyoMugsj6Gbt4VZx-OQ-2" source="vJyoMugsj6Gbt4VZx-OQ-18" target="vJyoMugsj6Gbt4VZx-OQ-20">
          <mxGeometry x="0.0039" relative="1" as="geometry">
            <mxPoint x="730" y="461" as="sourcePoint" />
            <mxPoint x="900" y="461" as="targetPoint" />
            <mxPoint as="offset" />
          </mxGeometry>
        </mxCell>
        <mxCell id="vJyoMugsj6Gbt4VZx-OQ-30" value="" style="endArrow=classic;html=1;rounded=0;exitX=0.75;exitY=0.1;exitDx=0;exitDy=0;exitPerimeter=0;entryX=0;entryY=1;entryDx=0;entryDy=0;" edge="1" parent="vJyoMugsj6Gbt4VZx-OQ-2" source="vJyoMugsj6Gbt4VZx-OQ-26" target="vJyoMugsj6Gbt4VZx-OQ-20">
          <mxGeometry width="50" height="50" relative="1" as="geometry">
            <mxPoint x="470" y="636" as="sourcePoint" />
            <mxPoint x="520" y="586" as="targetPoint" />
          </mxGeometry>
        </mxCell>
        <mxCell id="vJyoMugsj6Gbt4VZx-OQ-37" value="&lt;font style=&quot;font-size: 15px;&quot;&gt;&amp;lt;&amp;lt;include&amp;gt;&amp;gt;&lt;/font&gt;" style="html=1;verticalAlign=bottom;endArrow=open;dashed=1;endSize=8;curved=0;rounded=0;entryX=0.229;entryY=0.886;entryDx=0;entryDy=0;exitX=1;exitY=0.5;exitDx=0;exitDy=0;entryPerimeter=0;" edge="1" parent="vJyoMugsj6Gbt4VZx-OQ-2" source="vJyoMugsj6Gbt4VZx-OQ-32" target="vJyoMugsj6Gbt4VZx-OQ-20">
          <mxGeometry x="0.0039" relative="1" as="geometry">
            <mxPoint x="930" y="761" as="sourcePoint" />
            <mxPoint x="1050" y="506" as="targetPoint" />
            <mxPoint as="offset" />
          </mxGeometry>
        </mxCell>
        <mxCell id="vJyoMugsj6Gbt4VZx-OQ-36" value="&lt;font style=&quot;font-size: 15px;&quot;&gt;&amp;lt;&amp;lt;include&amp;gt;&amp;gt;&lt;/font&gt;" style="html=1;verticalAlign=bottom;endArrow=open;dashed=1;endSize=8;curved=0;rounded=0;entryX=0.379;entryY=0.986;entryDx=0;entryDy=0;exitX=1;exitY=0;exitDx=0;exitDy=0;entryPerimeter=0;" edge="1" parent="vJyoMugsj6Gbt4VZx-OQ-2" source="vJyoMugsj6Gbt4VZx-OQ-33" target="vJyoMugsj6Gbt4VZx-OQ-20">
          <mxGeometry x="0.0039" relative="1" as="geometry">
            <mxPoint x="920" y="751" as="sourcePoint" />
            <mxPoint x="1040" y="496" as="targetPoint" />
            <mxPoint as="offset" />
          </mxGeometry>
        </mxCell>
        <mxCell id="vJyoMugsj6Gbt4VZx-OQ-38" value="" style="endArrow=classic;html=1;rounded=0;entryX=1;entryY=0.5;entryDx=0;entryDy=0;exitX=0;exitY=0.3333333333333333;exitDx=0;exitDy=0;exitPerimeter=0;" edge="1" parent="vJyoMugsj6Gbt4VZx-OQ-2" source="vJyoMugsj6Gbt4VZx-OQ-6" target="vJyoMugsj6Gbt4VZx-OQ-18">
          <mxGeometry width="50" height="50" relative="1" as="geometry">
            <mxPoint x="950" y="516" as="sourcePoint" />
            <mxPoint x="1000" y="466" as="targetPoint" />
            <Array as="points">
              <mxPoint x="1110" y="616" />
            </Array>
          </mxGeometry>
        </mxCell>
        <mxCell id="vJyoMugsj6Gbt4VZx-OQ-39" value="" style="endArrow=classic;html=1;rounded=0;entryX=0.979;entryY=0.686;entryDx=0;entryDy=0;entryPerimeter=0;exitX=0;exitY=0.3333333333333333;exitDx=0;exitDy=0;exitPerimeter=0;" edge="1" parent="vJyoMugsj6Gbt4VZx-OQ-2" source="vJyoMugsj6Gbt4VZx-OQ-6" target="vJyoMugsj6Gbt4VZx-OQ-10">
          <mxGeometry width="50" height="50" relative="1" as="geometry">
            <mxPoint x="950" y="356" as="sourcePoint" />
            <mxPoint x="1000" y="306" as="targetPoint" />
            <Array as="points">
              <mxPoint x="1110" y="286" />
            </Array>
          </mxGeometry>
        </mxCell>
        <mxCell id="vJyoMugsj6Gbt4VZx-OQ-43" style="edgeStyle=orthogonalEdgeStyle;rounded=0;orthogonalLoop=1;jettySize=auto;html=1;" edge="1" parent="vJyoMugsj6Gbt4VZx-OQ-2" source="vJyoMugsj6Gbt4VZx-OQ-40" target="vJyoMugsj6Gbt4VZx-OQ-26">
          <mxGeometry relative="1" as="geometry" />
        </mxCell>
        <mxCell id="vJyoMugsj6Gbt4VZx-OQ-45" value="" style="edgeStyle=orthogonalEdgeStyle;rounded=0;orthogonalLoop=1;jettySize=auto;html=1;" edge="1" parent="vJyoMugsj6Gbt4VZx-OQ-2" source="vJyoMugsj6Gbt4VZx-OQ-40" target="vJyoMugsj6Gbt4VZx-OQ-41">
          <mxGeometry relative="1" as="geometry" />
        </mxCell>
        <mxCell id="vJyoMugsj6Gbt4VZx-OQ-40" value="&lt;font style=&quot;font-size: 15px;&quot;&gt;Membre&lt;/font&gt;" style="shape=umlActor;verticalLabelPosition=bottom;verticalAlign=top;html=1;outlineConnect=0;" vertex="1" parent="vJyoMugsj6Gbt4VZx-OQ-2">
          <mxGeometry x="128" y="556" width="30" height="60" as="geometry" />
        </mxCell>
        <mxCell id="vJyoMugsj6Gbt4VZx-OQ-41" value="&lt;font style=&quot;font-size: 15px;&quot;&gt;Membre de la DECS&lt;/font&gt;" style="shape=umlActor;verticalLabelPosition=bottom;verticalAlign=top;html=1;outlineConnect=0;" vertex="1" parent="vJyoMugsj6Gbt4VZx-OQ-2">
          <mxGeometry x="128" y="696" width="30" height="60" as="geometry" />
        </mxCell>
        <mxCell id="vJyoMugsj6Gbt4VZx-OQ-42" value="" style="endArrow=classic;html=1;rounded=0;exitX=0.5;exitY=0;exitDx=0;exitDy=0;exitPerimeter=0;" edge="1" parent="vJyoMugsj6Gbt4VZx-OQ-2" source="vJyoMugsj6Gbt4VZx-OQ-41" target="vJyoMugsj6Gbt4VZx-OQ-26">
          <mxGeometry width="50" height="50" relative="1" as="geometry">
            <mxPoint x="340" y="686" as="sourcePoint" />
            <mxPoint x="390" y="636" as="targetPoint" />
            <Array as="points">
              <mxPoint x="80" y="596" />
            </Array>
          </mxGeometry>
        </mxCell>
        <mxCell id="vJyoMugsj6Gbt4VZx-OQ-47" value="&lt;font style=&quot;font-size: 15px;&quot;&gt;télécharger rapport sur le personnel&lt;/font&gt;" style="ellipse;whiteSpace=wrap;html=1;" vertex="1" parent="vJyoMugsj6Gbt4VZx-OQ-2">
          <mxGeometry x="730" y="666" width="140" height="70" as="geometry" />
        </mxCell>
        <mxCell id="vJyoMugsj6Gbt4VZx-OQ-48" value="" style="endArrow=classic;html=1;rounded=0;exitX=0.75;exitY=0.1;exitDx=0;exitDy=0;exitPerimeter=0;entryX=0;entryY=0.5;entryDx=0;entryDy=0;" edge="1" parent="vJyoMugsj6Gbt4VZx-OQ-2" source="vJyoMugsj6Gbt4VZx-OQ-26" target="vJyoMugsj6Gbt4VZx-OQ-47">
          <mxGeometry width="50" height="50" relative="1" as="geometry">
            <mxPoint x="600" y="676" as="sourcePoint" />
            <mxPoint x="650" y="626" as="targetPoint" />
          </mxGeometry>
        </mxCell>
        <mxCell id="vJyoMugsj6Gbt4VZx-OQ-49" value="&lt;font style=&quot;font-size: 15px;&quot;&gt;&amp;lt;&amp;lt;include&amp;gt;&amp;gt;&lt;/font&gt;" style="html=1;verticalAlign=bottom;endArrow=open;dashed=1;endSize=8;curved=0;rounded=0;entryX=0.429;entryY=1;entryDx=0;entryDy=0;exitX=1;exitY=0.5;exitDx=0;exitDy=0;entryPerimeter=0;" edge="1" parent="vJyoMugsj6Gbt4VZx-OQ-2" source="vJyoMugsj6Gbt4VZx-OQ-47" target="vJyoMugsj6Gbt4VZx-OQ-20">
          <mxGeometry x="0.0039" relative="1" as="geometry">
            <mxPoint x="824" y="606" as="sourcePoint" />
            <mxPoint x="1023" y="495" as="targetPoint" />
            <mxPoint as="offset" />
          </mxGeometry>
        </mxCell>
        <mxCell id="vJyoMugsj6Gbt4VZx-OQ-7" value="Administrateur" style="text;html=1;align=center;verticalAlign=middle;whiteSpace=wrap;rounded=0;fontSize=16;" vertex="1" parent="1">
          <mxGeometry x="53" y="310" width="60" height="30" as="geometry" />
        </mxCell>
        <mxCell id="vJyoMugsj6Gbt4VZx-OQ-44" value="&lt;font style=&quot;font-size: 15px;&quot;&gt;Utilisateur&lt;/font&gt;" style="text;html=1;align=center;verticalAlign=middle;whiteSpace=wrap;rounded=0;" vertex="1" parent="1">
          <mxGeometry x="10" y="420" width="60" height="30" as="geometry" />
        </mxCell>
      </root>
    </mxGraphModel>
  </diagram>
</mxfile>
